<?xml version="1.0" encoding="utf-8"?>
<svg style="background: #DDD;" width="250" height="180" xmlns="http://www.w3.org/2000/svg">
  <defs/>
  <rect x="50" y="20" rx="20" ry="20" width="150" height="150" style="fill:#F7E1E1;stroke:#555;stroke-width:5"/>
  <path d="M 40 55 L 210 55 C 216.66666666666666 55 220 58.333333333333336 220 65 L 220 110 C 220 116.66666666666667 216.66666666666666 120 210 120 L 147.5546417236328 120 C 141.413818359375 119.65660095214844 139.37356567382812 119.33333587646484 134.9094696044922 108.385009765625 C 126.24280293782553 61.71834309895834 122.72701517740886 61.718350728352874 114.06034851074219 108.38501739501953 C 109.29308319091797 120.36351776123047 104.16232299804688 120 104.16232299804688 120 L 40 120 C 33.333333333333336 120 30 116.66666666666667 30 110 L 30 65 C 30 58.333333333333336 33.333333333333336 55 40 55 Z " style="fill: rgb(27, 27, 27); stroke: rgb(8, 7, 33); stroke-width: 1px;"/>
  
  <rect width="60" height="40" x="40" y="70" style="fill: rgb(216, 216, 216);"/>
  <rect width="60" height="40" x="150" y="70" style="fill: rgb(216, 216, 216);"/>
  
  
  <circle cx="75" cy="90" r="5" fill="#555">
	<animate id="1_1"
			 attributeName="cx" attributeType="XML"
             from="75"  to="60"
             begin="0s" dur="2s"
             fill="freeze"/>
	<animate id="1_2"
			 attributeName="cx" attributeType="XML"
             from="60"  to="75"
             begin="1_1.end" dur="2s"
             fill="freeze" />
  </circle>
  <circle cx="175" cy="90" r="5" fill="#555" />
  
  
  <!--
  <line x1="71" y1="90" x2="79" y2="90" style="stroke:#555;stroke-width:2" />
  <line x1="171" y1="90" x2="179" y2="90" style="stroke:#555;stroke-width:2" />
  -->
  <line x1="100" y1="150" x2="150" y2="150" style="stroke:#555;stroke-width:5" />
</svg>